<svg width="284" height="397" viewBox="0 0 284 397" fill="none" xmlns="http://www.w3.org/2000/svg">
<path d="M416.905 243.49C402.215 294.502 368.924 338.114 323.605 365.714C278.286 393.315 224.234 402.899 172.122 392.572C120.011 382.246 73.6283 352.76 42.1336 309.937C10.639 267.114 -3.67823 214.068 2.00926 161.273C7.69676 108.478 32.9755 59.7723 72.8537 24.7737C112.732 -10.2249 164.311 -28.9722 217.404 -27.766C270.498 -26.5598 321.248 -5.488 359.632 31.2885C398.015 68.0651 421.243 117.873 424.728 170.876L329.334 176.969C327.419 147.845 314.656 120.477 293.565 100.269C272.474 80.0606 244.588 68.4821 215.414 67.8193C186.24 67.1565 157.899 77.4578 135.986 96.6888C114.074 115.92 100.184 142.683 97.0588 171.693C93.9337 200.702 101.801 229.85 119.106 253.38C136.412 276.911 161.898 293.113 190.533 298.787C219.167 304.461 248.867 299.195 273.769 284.029C298.671 268.863 316.964 244.899 325.036 216.869L416.905 243.49Z" fill="#8AD31A"/>
</svg>
