<svg width="217" height="351" viewBox="0 0 217 351" fill="none" xmlns="http://www.w3.org/2000/svg">
<path d="M147.774 0.315262C118.606 5.05984 91.1026 17.0725 67.7995 35.2454C44.4964 53.4182 26.1443 77.1662 14.4358 104.299C2.72723 131.432 -1.96084 161.076 0.803931 190.498C3.5687 219.92 13.6973 248.172 30.2556 272.649C46.8139 297.125 69.2689 317.039 95.5495 330.552C121.83 344.066 151.09 350.744 180.632 349.972C210.173 349.2 239.044 341.001 264.583 326.133C290.122 311.265 311.505 290.205 326.762 264.897L277.734 235.341C267.44 252.417 253.012 266.627 235.78 276.659C218.548 286.691 199.068 292.223 179.136 292.744C159.203 293.265 139.46 288.759 121.728 279.641C103.996 270.523 88.8448 257.087 77.6725 240.572C66.5001 224.056 59.666 204.994 57.8006 185.142C55.9351 165.29 59.0983 145.289 66.9984 126.981C74.8985 108.674 87.2811 92.6504 103.004 80.3887C118.728 68.1269 137.285 60.0216 156.966 56.8203L147.774 0.315262Z" fill="#8AD31A"/>
</svg>
