<svg width="194" height="131" viewBox="0 0 194 131" fill="none" xmlns="http://www.w3.org/2000/svg">
<circle cx="2.5" cy="2.5" r="2.5" fill="#2D2D2D"/>
<circle cx="23.5" cy="2.5" r="2.5" fill="#2D2D2D"/>
<circle cx="44.5" cy="2.5" r="2.5" fill="#2D2D2D"/>
<circle cx="65.5" cy="2.5" r="2.5" fill="#2D2D2D"/>
<circle cx="86.5" cy="2.5" r="2.5" fill="#2D2D2D"/>
<circle cx="107.5" cy="2.5" r="2.5" fill="#2D2D2D"/>
<circle cx="128.5" cy="2.5" r="2.5" fill="#2D2D2D"/>
<circle cx="149.5" cy="2.5" r="2.5" fill="#2D2D2D"/>
<circle cx="170.5" cy="2.5" r="2.5" fill="#2D2D2D"/>
<circle cx="191.5" cy="2.5" r="2.5" fill="#2D2D2D"/>
<circle cx="2.5" cy="20.5" r="2.5" fill="#2D2D2D"/>
<circle cx="23.5" cy="20.5" r="2.5" fill="#2D2D2D"/>
<circle cx="44.5" cy="20.5" r="2.5" fill="#2D2D2D"/>
<circle cx="65.5" cy="20.5" r="2.5" fill="#2D2D2D"/>
<circle cx="86.5" cy="20.5" r="2.5" fill="#2D2D2D"/>
<circle cx="107.5" cy="20.5" r="2.5" fill="#2D2D2D"/>
<circle cx="128.5" cy="20.5" r="2.5" fill="#2D2D2D"/>
<circle cx="149.5" cy="20.5" r="2.5" fill="#2D2D2D"/>
<circle cx="170.5" cy="20.5" r="2.5" fill="#2D2D2D"/>
<circle cx="191.5" cy="20.5" r="2.5" fill="#2D2D2D"/>
<circle cx="2.5" cy="38.5" r="2.5" fill="#2D2D2D"/>
<circle cx="23.5" cy="38.5" r="2.5" fill="#2D2D2D"/>
<circle cx="44.5" cy="38.5" r="2.5" fill="#2D2D2D"/>
<circle cx="65.5" cy="38.5" r="2.5" fill="#2D2D2D"/>
<circle cx="86.5" cy="38.5" r="2.5" fill="#2D2D2D"/>
<circle cx="107.5" cy="38.5" r="2.5" fill="#2D2D2D"/>
<circle cx="128.5" cy="38.5" r="2.5" fill="#2D2D2D"/>
<circle cx="149.5" cy="38.5" r="2.5" fill="#2D2D2D"/>
<circle cx="170.5" cy="38.5" r="2.5" fill="#2D2D2D"/>
<circle cx="191.5" cy="38.5" r="2.5" fill="#2D2D2D"/>
<circle cx="2.5" cy="56.5" r="2.5" fill="#2D2D2D"/>
<circle cx="23.5" cy="56.5" r="2.5" fill="#2D2D2D"/>
<circle cx="44.5" cy="56.5" r="2.5" fill="#2D2D2D"/>
<circle cx="65.5" cy="56.5" r="2.5" fill="#2D2D2D"/>
<circle cx="86.5" cy="56.5" r="2.5" fill="#2D2D2D"/>
<circle cx="107.5" cy="56.5" r="2.5" fill="#2D2D2D"/>
<circle cx="128.5" cy="56.5" r="2.5" fill="#2D2D2D"/>
<circle cx="149.5" cy="56.5" r="2.5" fill="#2D2D2D"/>
<circle cx="170.5" cy="56.5" r="2.5" fill="#2D2D2D"/>
<circle cx="191.5" cy="56.5" r="2.5" fill="#2D2D2D"/>
<circle cx="2.5" cy="74.5" r="2.5" fill="#2D2D2D"/>
<circle cx="23.5" cy="74.5" r="2.5" fill="#2D2D2D"/>
<circle cx="44.5" cy="74.5" r="2.5" fill="#2D2D2D"/>
<circle cx="65.5" cy="74.5" r="2.5" fill="#2D2D2D"/>
<circle cx="86.5" cy="74.5" r="2.5" fill="#2D2D2D"/>
<circle cx="107.5" cy="74.5" r="2.5" fill="#2D2D2D"/>
<circle cx="128.5" cy="74.5" r="2.5" fill="#2D2D2D"/>
<circle cx="149.5" cy="74.5" r="2.5" fill="#2D2D2D"/>
<circle cx="170.5" cy="74.5" r="2.5" fill="#2D2D2D"/>
<circle cx="191.5" cy="74.5" r="2.5" fill="#2D2D2D"/>
<circle cx="2.5" cy="92.5" r="2.5" fill="#2D2D2D"/>
<circle cx="23.5" cy="92.5" r="2.5" fill="#2D2D2D"/>
<circle cx="44.5" cy="92.5" r="2.5" fill="#2D2D2D"/>
<circle cx="65.5" cy="92.5" r="2.5" fill="#2D2D2D"/>
<circle cx="86.5" cy="92.5" r="2.5" fill="#2D2D2D"/>
<circle cx="107.5" cy="92.5" r="2.5" fill="#2D2D2D"/>
<circle cx="128.5" cy="92.5" r="2.5" fill="#2D2D2D"/>
<circle cx="149.5" cy="92.5" r="2.5" fill="#2D2D2D"/>
<circle cx="170.5" cy="92.5" r="2.5" fill="#2D2D2D"/>
<circle cx="191.5" cy="92.5" r="2.5" fill="#2D2D2D"/>
<circle cx="2.5" cy="110.5" r="2.5" fill="#2D2D2D"/>
<circle cx="23.5" cy="110.5" r="2.5" fill="#2D2D2D"/>
<circle cx="44.5" cy="110.5" r="2.5" fill="#2D2D2D"/>
<circle cx="65.5" cy="110.5" r="2.5" fill="#2D2D2D"/>
<circle cx="86.5" cy="110.5" r="2.5" fill="#2D2D2D"/>
<circle cx="107.5" cy="110.5" r="2.5" fill="#2D2D2D"/>
<circle cx="128.5" cy="110.5" r="2.5" fill="#2D2D2D"/>
<circle cx="149.5" cy="110.5" r="2.5" fill="#2D2D2D"/>
<circle cx="170.5" cy="110.5" r="2.5" fill="#2D2D2D"/>
<circle cx="191.5" cy="110.5" r="2.5" fill="#2D2D2D"/>
<circle cx="2.5" cy="128.5" r="2.5" fill="#2D2D2D"/>
<circle cx="23.5" cy="128.5" r="2.5" fill="#2D2D2D"/>
<circle cx="44.5" cy="128.5" r="2.5" fill="#2D2D2D"/>
<circle cx="65.5" cy="128.5" r="2.5" fill="#2D2D2D"/>
<circle cx="86.5" cy="128.5" r="2.5" fill="#2D2D2D"/>
<circle cx="107.5" cy="128.5" r="2.5" fill="#2D2D2D"/>
<circle cx="128.5" cy="128.5" r="2.5" fill="#2D2D2D"/>
<circle cx="149.5" cy="128.5" r="2.5" fill="#2D2D2D"/>
<circle cx="170.5" cy="128.5" r="2.5" fill="#2D2D2D"/>
<circle cx="191.5" cy="128.5" r="2.5" fill="#2D2D2D"/>
</svg>
