<svg width="101" height="100" viewBox="0 0 101 100" fill="none" xmlns="http://www.w3.org/2000/svg">
<path d="M100.133 49.9998C100.107 40.3316 97.2791 30.8783 91.9908 22.7846C86.7025 14.6909 79.1811 8.30393 70.3373 4.39722C61.4936 0.490515 51.7068 -0.768393 42.1623 0.772948C32.6177 2.31429 23.7247 6.58977 16.5602 13.0816C9.39573 19.5735 4.26703 28.0033 1.7952 37.3502C-0.676633 46.6971 -0.385566 56.5602 2.63315 65.745C5.65187 74.9299 11.2688 83.0426 18.8036 89.1006C26.3385 95.1587 35.4681 98.9023 45.087 99.8781L46.9147 81.8619C40.7795 81.2395 34.9564 78.8517 30.1505 74.9877C25.3446 71.1237 21.762 65.9493 19.8365 60.0909C17.9111 54.2326 17.7255 47.9416 19.3021 41.98C20.8787 36.0183 24.1499 30.6415 28.7196 26.5009C33.2893 22.3602 38.9615 19.6332 45.0492 18.6501C51.137 17.667 57.3792 18.4699 63.02 20.9617C68.6608 23.4535 73.4581 27.5273 76.8312 32.6896C80.2042 37.852 82.0081 43.8816 82.0246 50.0482L100.133 49.9998Z" fill="#8AD31A"/>
</svg>
